<?xml version="1.0" standalone="no"?>
<!DOCTYPE svg PUBLIC "-//W3C//DTD SVG 20010904//EN"
 "http://www.w3.org/TR/2001/REC-SVG-20010904/DTD/svg10.dtd">
<svg version="1.0" xmlns="http://www.w3.org/2000/svg"
 width="512.000000pt" height="512.000000pt" viewBox="0 0 512.000000 512.000000"
 preserveAspectRatio="xMidYMid meet">
<metadata>
Created by potrace 1.11, written by Peter Selinger 2001-2013
</metadata>
<g transform="translate(0.000000,512.000000) scale(0.100000,-0.100000)"
fill="#000000" stroke="none">
<path d="M2430 5114 c-659 -45 -1223 -297 -1675 -749 -248 -247 -421 -501
-549 -806 -358 -855 -240 -1805 317 -2548 82 -109 337 -371 442 -453 304 -238
668 -412 1025 -492 220 -48 329 -60 570 -60 241 0 350 12 570 60 495 110 978
391 1318 767 678 751 856 1793 466 2726 -127 301 -300 557 -544 801 -194 195
-427 367 -652 481 -242 123 -588 226 -863 258 -104 12 -345 20 -425 15z m-689
-609 c207 -36 380 -126 529 -275 285 -285 362 -719 194 -1097 -53 -122 -183
-285 -289 -363 -72 -53 -203 -127 -255 -144 -160 -51 -159 -51 -345 -50 -167
0 -186 2 -270 28 -340 104 -591 369 -677 713 -31 125 -31 331 0 457 81 326
327 591 643 695 155 51 316 63 470 36z"/>
</g>
</svg>
